<svg width="29" height="29" viewBox="0 0 29 29" fill="none" xmlns="http://www.w3.org/2000/svg">
<path d="M27.6038 14.4997C27.6038 21.7369 21.7369 27.6038 14.4997 27.6038C7.26244 27.6038 1.39551 21.7369 1.39551 14.4997C1.39551 7.26244 7.26244 1.39551 14.4997 1.39551C21.7369 1.39551 27.6038 7.26244 27.6038 14.4997Z" fill="white"/>
<path d="M13.8172 19.6718C13.553 19.6713 13.2969 19.581 13.091 19.4156L10.1287 17.0451H6.2108C5.90177 17.0448 5.6057 16.9219 5.38728 16.7035C5.16886 16.4851 5.046 16.189 5.04566 15.88V10.5654C5.046 10.2564 5.16886 9.96032 5.38728 9.7419C5.6057 9.52349 5.90174 9.40062 6.2108 9.40028H10.1287L13.0903 7.03045C13.3202 6.84684 13.6106 6.75692 13.9039 6.77859C14.1973 6.80026 14.4715 6.93199 14.6718 7.14751C14.8719 7.36285 14.9834 7.64611 14.9837 7.94015V18.505C14.9847 18.7245 14.9231 18.9398 14.8064 19.1256C14.6895 19.3115 14.5221 19.4603 14.324 19.5546C14.166 19.6311 13.9926 19.6713 13.8172 19.6718ZM6.57447 15.5162H10.2562C10.5208 15.5167 10.7775 15.6068 10.9846 15.7715L13.4546 17.7476V8.69814L10.9846 10.6743C10.7775 10.839 10.5208 10.9291 10.2562 10.9296H6.57447V15.5162Z" fill="white"/>
<path d="M18.0416 20.1031C17.7684 20.1031 17.516 19.9574 17.3795 19.7209C17.243 19.4844 17.243 19.1929 17.3795 18.9564C17.516 18.7199 17.7684 18.5742 18.0416 18.5742C19.9534 18.5742 21.72 17.5543 22.676 15.8986C23.6317 14.2429 23.6317 12.203 22.676 10.5473C21.72 8.89165 19.9534 7.87172 18.0416 7.87172C17.7684 7.87172 17.516 7.726 17.3795 7.48949C17.243 7.25298 17.243 6.96153 17.3795 6.72503C17.516 6.48853 17.7684 6.3428 18.0416 6.3428C20.4996 6.3428 22.7712 7.65418 24 9.78288C25.2291 11.9116 25.2291 14.5343 24 16.663C22.771 18.7917 20.4997 20.1031 18.0416 20.1031Z" fill="white"/>
<path d="M18.0416 17.0441C17.7684 17.0441 17.516 16.8983 17.3795 16.6618C17.243 16.4253 17.243 16.1339 17.3795 15.8974C17.516 15.6609 17.7684 15.5151 18.0416 15.5151C18.861 15.5151 19.6181 15.078 20.0276 14.3684C20.4373 13.6589 20.4373 12.7846 20.0276 12.0751C19.6181 11.3655 18.861 10.9284 18.0416 10.9284C17.7684 10.9284 17.516 10.7826 17.3795 10.5461C17.243 10.3096 17.243 10.0182 17.3795 9.78167C17.516 9.54517 17.7684 9.39944 18.0416 9.39944C19.4072 9.39944 20.669 10.1279 21.3518 11.3106C22.0345 12.4933 22.0345 13.9502 21.3518 15.1329C20.669 16.3156 19.4072 17.0441 18.0416 17.0441Z" fill="white"/>
<path d="M27.6038 14.4997C27.6038 21.7369 21.7369 27.6038 14.4997 27.6038C7.26244 27.6038 1.39551 21.7369 1.39551 14.4997C1.39551 7.26244 7.26244 1.39551 14.4997 1.39551C21.7369 1.39551 27.6038 7.26244 27.6038 14.4997Z" stroke="#556EE6"/>
<path d="M13.8172 19.6718C13.553 19.6713 13.2969 19.581 13.091 19.4156L10.1287 17.0451H6.2108C5.90177 17.0448 5.6057 16.9219 5.38728 16.7035C5.16886 16.4851 5.046 16.189 5.04566 15.88V10.5654C5.046 10.2564 5.16886 9.96032 5.38728 9.7419C5.6057 9.52349 5.90174 9.40062 6.2108 9.40028H10.1287L13.0903 7.03045C13.3202 6.84684 13.6106 6.75692 13.9039 6.77859C14.1973 6.80026 14.4715 6.93199 14.6718 7.14751C14.8719 7.36285 14.9834 7.64611 14.9837 7.94015V18.505C14.9847 18.7245 14.9231 18.9398 14.8064 19.1256C14.6895 19.3115 14.5221 19.4603 14.324 19.5546C14.166 19.6311 13.9926 19.6713 13.8172 19.6718ZM6.57447 15.5162H10.2562C10.5208 15.5167 10.7775 15.6068 10.9846 15.7715L13.4546 17.7476V8.69814L10.9846 10.6743C10.7775 10.839 10.5208 10.9291 10.2562 10.9296H6.57447V15.5162Z" stroke="#556EE6"/>
<path d="M18.0416 20.1031C17.7684 20.1031 17.516 19.9574 17.3795 19.7209C17.243 19.4844 17.243 19.1929 17.3795 18.9564C17.516 18.7199 17.7684 18.5742 18.0416 18.5742C19.9534 18.5742 21.72 17.5543 22.676 15.8986C23.6317 14.2429 23.6317 12.203 22.676 10.5473C21.72 8.89165 19.9534 7.87172 18.0416 7.87172C17.7684 7.87172 17.516 7.726 17.3795 7.48949C17.243 7.25298 17.243 6.96153 17.3795 6.72503C17.516 6.48853 17.7684 6.3428 18.0416 6.3428C20.4996 6.3428 22.7712 7.65418 24 9.78288C25.2291 11.9116 25.2291 14.5343 24 16.663C22.771 18.7917 20.4997 20.1031 18.0416 20.1031Z" stroke="#556EE6"/>
<path d="M18.0416 17.0441C17.7684 17.0441 17.516 16.8983 17.3795 16.6618C17.243 16.4253 17.243 16.1339 17.3795 15.8974C17.516 15.6609 17.7684 15.5151 18.0416 15.5151C18.861 15.5151 19.6181 15.078 20.0276 14.3684C20.4373 13.6589 20.4373 12.7846 20.0276 12.0751C19.6181 11.3655 18.861 10.9284 18.0416 10.9284C17.7684 10.9284 17.516 10.7826 17.3795 10.5461C17.243 10.3096 17.243 10.0182 17.3795 9.78167C17.516 9.54517 17.7684 9.39944 18.0416 9.39944C19.4072 9.39944 20.669 10.1279 21.3518 11.3106C22.0345 12.4933 22.0345 13.9502 21.3518 15.1329C20.669 16.3156 19.4072 17.0441 18.0416 17.0441Z" stroke="#556EE6"/>
</svg>
