<svg width="25" height="23" viewBox="0 0 25 23" fill="none" xmlns="http://www.w3.org/2000/svg">
<path fill-rule="evenodd" clip-rule="evenodd" d="M7.46045 10.5585H9.41663V12.3603H7.46045V10.5585ZM7.46045 14.1621H9.41663V15.9639H7.46045V14.1621ZM11.375 10.5585H13.3311V12.3603H11.375V10.5585ZM11.375 14.1621H13.3311V15.9639H11.375V14.1621ZM15.281 10.5585H17.2371V12.3603H15.281V10.5585ZM15.281 14.1621H17.2371V15.9639H15.281V14.1621Z" fill="#6A7187"/>
<path fill-rule="evenodd" clip-rule="evenodd" d="M5.50574 20.4685H19.199C20.2778 20.4685 21.1552 19.6604 21.1552 18.6667V7.85585V6.05404C21.1552 5.06035 20.2778 4.25224 19.199 4.25224H17.2428V2.45044H15.2867V4.25224H9.41811V2.45044H7.46192V4.25224H5.50574C4.42691 4.25224 3.54956 5.06035 3.54956 6.05404V7.85585V18.6667C3.54956 19.6604 4.42691 20.4685 5.50574 20.4685ZM19.1966 7.85583L19.1976 18.6666H5.50337V7.85583H19.1966Z" fill="#6A7187"/>
</svg>
