<svg width="13" height="13" viewBox="0 0 13 13" fill="none" xmlns="http://www.w3.org/2000/svg">
<path fill-rule="evenodd" clip-rule="evenodd" d="M0.928589 11.7812C0.928589 12.4543 1.55219 13 2.32145 13H10.6786C11.4478 13 12.0714 12.4543 12.0714 11.7812V3.25H0.928589V11.7812ZM8.82141 5.28125C8.82141 5.05688 9.02928 4.875 9.2857 4.875C9.54211 4.875 9.74998 5.05688 9.74998 5.28125V10.9687C9.74998 11.1931 9.54211 11.375 9.2857 11.375C9.02928 11.375 8.82141 11.1931 8.82141 10.9687V5.28125ZM6.03571 5.28125C6.03571 5.05688 6.24357 4.875 6.49999 4.875C6.75641 4.875 6.96428 5.05688 6.96428 5.28125V10.9687C6.96428 11.1931 6.75641 11.375 6.49999 11.375C6.24357 11.375 6.03571 11.1931 6.03571 10.9687V5.28125ZM3.25 5.28125C3.25 5.05688 3.45787 4.875 3.71429 4.875C3.9707 4.875 4.17857 5.05688 4.17857 5.28125V10.9687C4.17857 11.1931 3.9707 11.375 3.71429 11.375C3.45787 11.375 3.25 11.1931 3.25 10.9687V5.28125ZM12.5357 0.812504H9.05357L8.7808 0.3377C8.66294 0.13065 8.42128 -0.000161394 8.15692 4.4749e-06H4.84018C4.57632 -0.000882982 4.33511 0.130292 4.2192 0.3377L3.94643 0.812504H0.464286C0.207868 0.812504 0 0.994389 0 1.21875V2.03125C0 2.25562 0.207868 2.4375 0.464286 2.4375H12.5357C12.7921 2.4375 13 2.25562 13 2.03125V1.21875C13 0.994389 12.7921 0.812504 12.5357 0.812504Z" fill="#556EE6"/>
</svg>
