<svg width="100" height="73" viewBox="0 0 100 73" fill="none" xmlns="http://www.w3.org/2000/svg">
<path d="M99.1908 33.5756H99.1824C99.1824 32.4009 99.1901 31.2261 99.1908 30.0507V27.26C99.1901 26.592 99.1839 25.9223 99.1755 25.2565C99.1378 22.7142 99.0479 20.1726 98.9487 17.6318C98.9256 17.1252 98.7765 16.6201 98.6465 16.125C98.6004 15.9398 98.4436 15.7799 98.3367 15.6092C98.2783 15.6123 98.2222 15.6176 98.1607 15.6215C98.1076 15.8967 98.0277 16.1688 98.0062 16.4471C97.9708 16.9207 97.9523 17.3489 97.3681 17.5434C97.1959 17.5988 97.0706 18.0139 97.0529 18.2707C96.9537 19.636 96.8645 21.0014 96.8361 22.3698C96.773 25.465 96.7453 28.557 96.7046 31.6504C96.7038 31.8103 96.7046 31.971 96.6815 32.1278C96.4355 30.691 96.597 29.198 96.1257 27.7957C96.0573 27.7872 95.9912 27.778 95.9228 27.7703C95.7782 28.4 95.6353 29.0288 95.4915 29.6561C95.4231 29.6492 95.3585 29.6408 95.2931 29.6331C94.8534 28.8697 94.9695 27.9856 94.8588 27.1515C94.8127 27.1515 94.7665 27.1515 94.7243 27.1508C94.6166 28.9044 94.5059 30.6557 94.3944 32.4093C94.3698 32.4069 94.346 32.4062 94.3199 32.4039C94.2484 30.4067 94.1769 28.414 94.1015 26.4174C94.0577 26.4166 94.0124 26.4166 93.9685 26.4143C93.8517 27.3653 93.7318 28.3147 93.6134 29.2657H93.548C93.4796 27.6412 93.4135 26.0207 93.3443 24.3986C93.3089 24.3986 93.2774 24.3986 93.2443 24.3994C93.1498 25.0813 93.0591 25.7594 92.9676 26.4413C92.9069 26.442 92.85 26.442 92.79 26.4443C92.6993 23.7097 92.6124 20.9721 92.5232 18.2393H92.4856C92.3633 20.4195 92.2395 22.5968 92.1188 24.777H92.0573C91.9905 22.5936 91.9259 20.4102 91.8613 18.2271C91.8113 18.2271 91.7591 18.2278 91.7106 18.2278C91.4546 24.4204 91.1979 30.6121 90.9941 35.5522C90.8235 28.8898 90.6213 20.9845 90.4099 13.0768C90.3999 12.7316 90.2669 12.3872 90.1123 12.0397C90.0547 12.8815 90.0239 13.728 89.9301 14.5667C89.8363 15.4239 89.6818 16.275 89.5573 17.126C89.4858 17.1252 89.4143 17.1206 89.342 17.1175C89.269 16.2058 89.1967 15.2979 89.1237 14.3869C89.1083 14.3869 89.0952 14.3876 89.0806 14.3876C88.9692 15.4524 88.8562 16.521 88.7424 17.5849C88.7039 17.5819 88.6609 17.578 88.6232 17.575C88.5448 15.3839 88.4656 13.1928 88.3895 11.0026H88.258C88.0197 18.7304 87.7829 26.4596 87.5469 34.1235C87.4277 31.7264 87.3047 29.2578 87.1817 26.7924C87.1333 26.7916 87.0826 26.7893 87.0341 26.7893C86.9503 27.5566 86.8681 28.3277 86.7804 29.1156C86.6866 27.6488 86.6182 26.2082 86.4883 24.7713C86.4606 24.4484 86.2184 24.1509 86.0924 23.8326C85.9478 23.4767 85.8256 23.113 85.6519 22.6325C85.3397 25.6323 85.5865 28.5706 84.8639 31.5258C84.6578 29.5462 84.4641 27.6773 84.2657 25.8092C84.2073 25.8092 84.1535 25.8084 84.0935 25.8084C84.0028 26.6172 83.9152 27.4252 83.826 28.2339C83.4847 25.5555 83.7976 22.8394 83.2494 20.1886C83.1841 20.1579 83.1126 20.1279 83.0441 20.0971C83.0011 20.1917 82.9281 20.2824 82.9142 20.3816C82.7712 21.4694 82.0555 22.3774 82.0755 23.5458C82.1116 25.4632 81.9678 27.382 81.9071 29.3032C81.8987 29.603 81.9071 29.9036 81.8079 30.2058C81.6957 25.4247 81.5835 20.6413 81.4697 15.8627H81.4105C81.3213 20.7675 81.2306 25.6715 81.1429 30.5771H81.0876C80.97 26.0207 80.8485 21.4626 80.7293 16.9075H80.6655C80.5787 20.0342 80.4933 23.1607 80.4088 26.2889C80.368 26.2897 80.328 26.2935 80.2896 26.2958C80.2066 25.4017 80.1251 24.5107 80.0428 23.6196C79.9921 23.6173 79.9406 23.6173 79.8906 23.615C79.8068 27.3744 79.7245 31.1344 79.6392 34.8907C79.6185 34.8907 79.5962 34.8907 79.5754 34.893C79.191 27.1498 78.8097 19.4061 78.4284 11.6619C78.4 11.6619 78.3692 11.6611 78.34 11.6611C78.2662 16.5821 78.1908 21.5031 78.1194 26.4256C78.1017 26.4256 78.0894 26.4256 78.0786 26.4279C78.004 24.0286 77.9387 21.6292 77.8426 19.2322C77.7488 16.8428 77.6212 14.4536 77.3998 12.0649C76.9347 16.6037 77.0162 21.1511 76.9085 25.6962C76.7863 21.4379 76.6618 17.1803 76.538 12.9214C76.5018 12.9207 76.4634 12.9184 76.4234 12.9168C76.4065 13.0852 76.4004 13.2566 76.3642 13.4196C76.2089 14.1415 76.0091 14.8557 75.8984 15.5829C75.7615 16.4931 75.657 17.4149 75.6108 18.3329C75.4817 20.7991 75.4171 23.2692 75.271 25.7346C75.2157 26.6525 75.0166 27.562 74.8667 28.4722C74.8344 28.6675 74.7298 28.8543 74.5284 29.0418C74.4261 28.6828 74.3223 28.3223 74.2209 27.9609C74.1832 27.9609 74.1425 27.9617 74.1063 27.9617C74.1063 28.2116 74.1248 28.4607 74.1009 28.7082C74.0602 29.1664 73.9695 29.5615 73.4014 29.7045C73.2061 29.7522 73.0323 30.1066 72.9593 30.3549C72.8548 30.7063 72.8548 31.0876 72.7233 31.4635C72.5811 30.1904 72.4465 28.9172 72.2966 27.6458C72.0929 25.9537 71.9153 24.2578 71.6485 22.5741C71.564 22.0475 71.2219 21.5632 70.8636 21.0619C70.756 22.6041 70.6453 24.1455 70.5353 25.6877C70.2863 21.8285 70.4538 17.9561 69.928 14.1152C69.2976 14.6849 69.6405 15.4729 69.3668 16.1695C69.1969 16.0242 69.0493 15.8958 68.821 15.7013C68.7525 16.1311 68.6941 16.4862 68.6357 16.8407C68.6096 16.846 68.5796 16.8507 68.5511 16.8576C68.4235 16.0357 68.2944 15.2154 68.1613 14.3922H68.0729C68.0176 14.9226 67.963 15.4492 67.91 15.9782C67.8723 15.9812 67.8408 15.9851 67.8031 15.9881C67.7239 15.3393 67.6424 14.6912 67.5609 14.0431C67.5094 14.0408 67.4548 14.0385 67.4056 14.0378C67.2911 18.9849 67.175 23.9313 67.0605 28.8774C67.0074 28.8782 66.9528 28.8828 66.8975 28.8843C66.8229 27.9088 66.7483 26.9324 66.6761 25.9584C66.633 25.9607 66.5892 25.9638 66.5484 25.9653C66.3432 27.9357 66.1418 29.9054 65.9365 31.874C65.8957 31.8748 65.855 31.8771 65.8143 31.8787C65.7428 29.9998 65.6713 28.12 65.599 26.2411C65.5682 26.2381 65.5406 26.2342 65.5144 26.2327C65.2507 27.3612 64.9878 28.4899 64.7287 29.6183C64.6557 29.6099 64.5819 29.603 64.5081 29.5937C63.9638 27.3082 64.0045 24.9426 63.5556 22.6264C63.471 23.4959 63.3834 24.3669 63.2988 25.2349C63.2788 25.2372 63.2611 25.2379 63.2404 25.2402C63.1289 24.383 63.019 23.5289 62.9106 22.6709C62.8675 22.6717 62.8245 22.6717 62.783 22.674C62.7045 24.6359 62.6231 26.5979 62.5439 28.5589C62.4831 28.5597 62.4247 28.5597 62.3663 28.562C62.171 26.2926 61.9765 24.0246 61.7851 21.7544C61.752 21.7514 61.7167 21.7475 61.6859 21.7444C61.5768 23.9509 61.4676 26.1549 61.3554 28.3589H61.1978C61.1978 27.2258 61.2208 26.0872 61.187 24.9548C61.1639 24.1037 61.0878 23.2512 60.9917 22.4071C60.9587 22.125 60.7526 21.8682 60.6819 21.5891C60.5597 21.094 60.4274 20.5905 60.3844 20.0846C60.3329 19.4865 60.3698 18.8792 60.3698 18.2757C60.3221 18.2711 60.2729 18.268 60.223 18.2611C60.0046 20.0093 59.784 21.756 59.5649 23.5042C59.4834 23.4973 59.4019 23.4919 59.3189 23.4866C59.252 21.6438 59.1836 19.8033 59.1159 17.9606C59.1036 17.9598 59.0936 17.956 59.0805 17.9521C58.9475 19.1215 58.8153 20.2932 58.6616 21.623C58.5124 21.3462 58.4402 21.2155 58.3687 21.081C58.3287 21.0818 58.2918 21.0818 58.2541 21.0841C58.1657 23.0176 58.0788 24.9533 57.992 26.8891C57.38 23.3934 57.3431 19.8617 57.1302 16.3377C57.0156 20.4199 56.8995 24.502 56.7865 28.5836H56.7327C56.642 25.1363 56.5544 21.6922 56.4636 18.2444C56.4429 18.2444 56.4229 18.2436 56.3983 18.2436C56.2745 20.8674 56.1484 23.4928 56.0254 26.1174C56.0078 26.1174 55.9893 26.1182 55.9739 26.1182C55.8855 21.8837 55.7933 17.6486 55.7048 13.4141C55.6772 13.4118 55.6495 13.411 55.6187 13.411C55.5096 16.4031 55.3996 19.3991 55.2882 22.3935C55.2597 22.3943 55.2297 22.3943 55.2021 22.3943C55.119 18.8541 55.0368 15.31 54.9538 11.7699C54.8984 11.7699 54.8423 11.7699 54.7885 11.7706C54.2088 18.5213 54.3587 25.2972 54.0866 32.0595C53.9866 25.9153 53.8836 19.772 53.7821 13.6289C53.5185 19.5669 53.7406 25.5249 53.294 31.4592C53.2424 31.4761 53.1917 31.4946 53.1387 31.5092C53.0472 31.3254 52.9003 31.1478 52.8742 30.9556C52.6858 29.6218 52.5113 28.2865 52.3476 26.9481C52.3138 26.6782 52.3445 26.4022 52.2184 26.1178C52.1554 26.4245 52.0993 26.7282 52.0362 27.0303C51.9417 27.4924 51.6826 27.736 51.1929 27.7576C50.677 27.7806 50.3157 27.6084 50.1996 27.0857C50.0489 26.4291 49.9282 25.7657 49.7899 25.1038C49.756 24.9408 49.7091 24.7779 49.5408 24.6287C49.4262 26.5553 49.3117 28.4818 49.1971 30.4083C49.1771 30.4083 49.1587 30.4083 49.1387 30.4091C48.9204 24.1666 48.702 17.9235 48.4822 11.6833C48.4368 11.6856 48.3907 11.6856 48.3423 11.6864C48.2677 15.7071 48.1923 19.7277 48.1155 23.7469C48.0693 23.7469 48.0232 23.7477 47.9756 23.75C47.5181 19.5686 47.4528 15.3664 47.3713 11.1659C47.2929 11.1659 47.2168 11.1636 47.1399 11.1636C46.9246 16.1076 46.7086 21.0508 46.5072 25.7527C46.4073 22.9998 46.2996 20.0001 46.192 17.0017C46.1566 17.0017 46.1228 17.004 46.0874 17.004C46.0029 22.8498 45.9152 28.6955 45.8299 34.5376H45.7945C45.6123 30.3586 45.4317 26.1802 45.2502 21.9996C45.1634 21.9988 45.0742 21.9965 44.9866 21.995C44.9197 23.0859 44.8343 24.1752 44.7959 25.2661C44.7559 26.3862 44.7559 27.5056 44.7498 28.6256C44.7421 29.7457 44.749 30.8619 44.6767 31.9806C44.433 29.3721 44.4684 26.7398 43.8811 24.1644C43.5067 25.9641 43.8957 27.8391 43.2437 29.6043C42.7894 28.5641 42.8909 27.4609 42.7702 26.3755C42.3458 28.0868 42.4327 29.8881 41.9291 31.5793C41.8561 31.5793 41.78 31.5785 41.7054 31.5762C41.6224 30.8282 41.4886 30.0817 41.4694 29.3291C41.4025 26.965 41.3849 24.5996 41.3395 22.2348C41.3272 21.632 41.2811 21.0324 41.1942 20.4274C40.7106 24.2037 40.643 28.009 40.3562 31.8014C40.2755 28.8385 40.194 25.8734 40.1118 22.9105C40.0479 22.9051 39.9841 22.902 39.9203 22.8959C39.8488 23.1911 39.7773 23.4863 39.7066 23.7823C39.6551 23.7869 39.6021 23.7923 39.5498 23.7953C39.3484 21.805 39.1477 19.8153 38.9455 17.8242C38.9248 17.8173 38.904 17.8119 38.8825 17.8073C38.7749 18.7683 38.6434 19.7269 38.5619 20.6895C38.4789 21.6805 38.432 22.6753 38.3974 23.6708C38.3636 24.6663 38.3874 25.6642 38.3436 26.6567C38.3005 27.6431 38.2021 28.6264 38.0361 29.6104C37.4726 28.8116 37.6094 27.8922 37.3649 27.0181C37.2527 28.8831 37.1412 30.7521 37.0297 32.6202C37.019 32.6202 37.0074 32.6209 36.9998 32.6209C36.8983 29.3667 36.7945 26.111 36.6945 22.8575C36.6484 22.8491 36.6023 22.8399 36.5569 22.8314C36.4908 22.9306 36.4239 23.029 36.2725 23.2527C35.802 20.7788 35.7674 18.3616 35.403 15.9878C35.3338 17.5968 35.2631 19.2059 35.1939 20.8164C35.1608 20.8164 35.1285 20.8141 35.097 20.8141C34.9756 18.7915 34.8556 16.7703 34.7341 14.7469C34.7134 14.7492 34.6903 14.75 34.668 14.75C34.5912 16.9334 34.5104 19.1189 34.4336 21.3023C34.4082 21.3023 34.382 21.3023 34.3574 21.3046C34.2736 20.196 34.1875 19.089 34.1037 17.9827C34.0576 17.9835 34.0092 17.9835 33.9592 17.9835C33.9039 20.6803 33.8524 23.378 33.7909 26.0748C33.7255 28.787 33.6486 31.5008 33.5794 34.2138C33.491 34.2138 33.4034 34.213 33.3158 34.213C32.9014 27.7538 33.0774 21.2729 32.7584 14.8013C32.4355 19.4601 32.1134 24.119 31.7905 28.7786C31.7405 28.7793 31.6944 28.7793 31.6452 28.7816C31.5337 27.8237 31.4192 26.8681 31.3069 25.9094C31.1693 27.1249 31.3092 28.365 30.9149 29.5419C30.8564 29.5527 30.8003 29.5642 30.7419 29.5742C30.6512 29.2913 30.5212 29.013 30.4828 28.7232C30.3229 27.5254 30.2076 26.3245 30.0438 25.1269C30 24.7948 29.8447 24.4765 29.6441 24.1605C28.923 25.6881 29.3742 27.3394 29.0052 29.0307C28.936 28.8016 28.8761 28.6909 28.8684 28.5764C28.7262 25.9155 28.5809 23.2518 28.4509 20.5919C28.384 19.2442 28.3471 17.8943 28.2926 16.3905C28.1142 16.5919 28.0481 16.668 27.8497 16.894C27.7536 15.2904 27.6668 13.8229 27.5776 12.3537H27.4915C27.3739 15.8063 27.257 19.2565 27.1379 22.7083H27.0925C27.0033 17.3154 26.9126 11.9215 26.8227 6.52939C26.7896 6.52939 26.7558 6.52862 26.7258 6.52862C26.6159 9.17174 26.5044 11.8133 26.3937 14.4562C26.3737 14.4562 26.3552 14.457 26.3345 14.457C26.3345 14.2686 26.3399 14.0764 26.3345 13.8881C26.2222 10.0318 26.1231 6.17797 25.9855 2.32252C25.9578 1.54529 25.7825 0.772664 25.6749 0H25.4612C25.425 4.67653 25.3804 9.35286 25.3535 14.0278C25.3389 16.5517 25.3512 19.0763 25.3512 21.5996H25.1929C25.0891 16.1596 24.9876 10.7152 24.8884 5.27541C24.4087 13.3807 24.4402 21.5128 23.5338 29.5988C22.9196 27.7591 23.3816 25.811 22.8327 23.9683C22.1793 25.9403 22.4483 27.9997 22.167 30.0202C22.1293 29.7503 22.0955 29.4782 22.0547 29.2091C21.9709 28.6556 21.9402 28.099 21.5266 27.6308C21.3513 27.4302 21.3359 27.0657 21.3036 26.7698C21.229 26.0525 21.1868 25.3329 21.1199 24.4673C20.9338 24.9063 20.807 25.1977 20.6832 25.4898C20.6179 25.4867 20.5517 25.4829 20.4872 25.4798C19.9029 24.4589 20.0989 23.2858 19.9767 22.0857C19.7653 23.2542 19.9052 24.3981 19.4324 25.4274C19.3717 25.4351 19.3102 25.4444 19.2487 25.4505C19.1495 25.0262 19.028 24.6033 18.9565 24.1728C18.8827 23.7154 18.8574 23.2549 18.7244 22.7882C18.6406 24.1151 18.5568 25.4412 18.4722 26.7582C18.1724 26.1686 17.8118 25.6373 17.6258 25.0508C17.4274 24.4311 17.3967 23.7615 17.2122 23.1019C17.0653 26.1402 16.92 29.1823 16.7732 32.2212C16.7017 32.2204 16.6333 32.2204 16.5625 32.2181C16.2035 27.4294 16.3457 22.623 16.0798 17.8242C15.9698 20.1912 15.8591 22.5576 15.7476 24.9254C15.7092 24.9262 15.6708 24.93 15.6308 24.9331C15.587 24.4672 15.5439 23.9998 15.4986 23.5308C15.4524 23.5301 15.4048 23.5278 15.3586 23.5262C15.2341 26.5561 15.1088 29.5841 14.9843 32.6156H14.9358C14.8413 29.3259 14.7482 26.0341 14.6529 22.7429H14.6029C14.4792 27.2134 14.3569 31.6831 14.2362 36.1536H14.2132C14.1009 30.407 13.9902 24.6604 13.8795 18.916C13.818 18.9106 13.7573 18.906 13.6958 18.9007C13.6458 18.9898 13.5974 19.079 13.5482 19.1682C13.4928 19.1659 13.4413 19.1651 13.3875 19.1628C13.3037 17.0271 13.2199 14.8931 13.1354 12.7573C13.1231 12.7566 13.1108 12.7566 13.0992 12.7566C12.9824 16.266 12.8632 19.7739 12.744 23.2818C12.7233 23.2841 12.7025 23.2841 12.681 23.2841C12.455 19.2226 12.2305 15.1613 12.0045 11.099H11.9414C11.82 19.5501 11.6977 27.9998 11.5778 36.4517H11.5317C11.4325 30.5136 11.3341 24.5734 11.2365 18.6345H11.0965C10.9943 20.0752 10.8928 21.5168 10.7913 22.9582C10.7552 22.9636 10.7168 22.969 10.6791 22.9751C10.6161 22.8298 10.5553 22.686 10.4938 22.5408C10.4554 22.5377 10.4154 22.5338 10.3762 22.5308C10.2893 24.0283 10.204 25.5281 10.1202 27.0288C10.0848 27.0342 10.051 27.0388 10.0156 27.0472C9.93491 26.8089 9.85266 26.5737 9.77116 26.3361C9.72504 26.3361 9.67968 26.3369 9.63124 26.3392C9.53976 28.2119 9.44597 30.0838 9.35217 31.9543C9.3245 31.9551 9.29836 31.9551 9.27145 31.9551C9.19303 31.4161 9.12846 30.8742 9.02928 30.3352C8.96778 29.9978 8.83094 29.7302 8.43116 29.6049C8.23589 29.5457 8.09905 29.2313 7.97681 29.0106C7.8984 28.8653 7.89609 28.6801 7.75848 28.5133C7.63624 29.3781 7.514 30.2438 7.38409 31.1585C7.17114 29.3926 6.96204 27.676 6.7537 25.9577C6.69604 25.9608 6.63915 25.9623 6.58072 25.9646C6.38161 27.1509 6.64684 28.4017 6.20171 29.551H6.01951C5.92495 28.4678 5.8058 27.383 5.74507 26.2968C5.58516 23.5108 5.45599 20.7233 5.30071 17.9371C5.26766 17.352 5.19078 16.7678 5.09161 16.1927C5.05163 15.9636 4.88866 15.7584 4.79947 15.5346C4.70337 15.2909 4.6165 15.0449 4.54732 14.7928C4.49196 14.6013 4.46583 14.3984 4.32898 14.2054C3.71549 20.0811 3.79929 25.9831 3.53791 31.8696C3.38493 24.301 3.4718 16.7263 2.989 9.16795C2.92058 9.16564 2.85446 9.1641 2.78835 9.1618C2.69764 11.4774 2.60615 13.7936 2.51621 16.113C2.47239 16.1184 2.4278 16.123 2.38475 16.1284C2.31095 15.7602 2.23945 15.3911 2.16795 15.0221C1.43376 21.1985 1.25311 27.4064 0.933297 33.6019C0.860264 33.6011 0.788766 33.6011 0.71496 33.5988C0.71496 32.1428 0.724954 30.6859 0.708041 29.2299C0.704966 28.8763 0.647308 28.518 0.555054 28.1774C0.511233 28.0198 0.302906 27.7784 0.199878 27.7915C0.137606 27.8007 0.068416 27.8307 0 27.8753V44.4002C0.040745 45.907 0.0807216 47.4192 0.122234 48.9276C0.139147 48.9276 0.155293 48.9299 0.170667 48.9299C0.289828 46.3806 0.40898 43.8314 0.528914 41.2843C0.565046 41.282 0.601948 41.2812 0.638849 41.2789C0.711883 42.6904 0.785685 44.1027 0.85949 45.5164C0.877172 45.5171 0.895621 45.5194 0.913304 45.5218C1.01786 44.1241 1.12395 42.7281 1.22851 41.3311C1.27233 41.3319 1.31538 41.3319 1.35843 41.3342C1.45684 45.5002 1.55447 49.6639 1.65288 53.8275C1.70285 53.8306 1.75282 53.836 1.79971 53.8429C1.84738 53.5431 1.89581 53.2456 1.9427 52.948C2.00805 52.948 2.07032 52.9503 2.13413 52.9511C2.21562 57.2317 2.29404 61.5114 2.37477 65.7928C2.68688 58.0403 2.65152 50.2773 3.1174 42.5321C3.18659 42.5329 3.25501 42.5329 3.32574 42.5329C3.40953 46.5867 3.49179 50.642 3.57558 54.6974C3.59865 54.6974 3.62094 54.6974 3.64477 54.6951C3.74318 51.2679 3.83851 47.8375 3.93691 44.408C3.96997 44.408 4.00226 44.4056 4.03301 44.4033C4.24365 49.3119 4.45737 54.2199 4.6688 59.13C4.70108 59.1323 4.7303 59.1323 4.76105 59.1331C5.00169 55.4369 5.24384 51.7412 5.48371 48.0405C5.52753 48.0451 5.57288 48.0451 5.6167 48.0451C5.67513 48.8846 5.73048 49.7295 5.78968 50.5713C5.85118 50.5713 5.91192 50.5744 5.97496 50.5744C6.1979 47.9336 6.42007 45.2928 6.64378 42.6513C6.66839 42.649 6.69452 42.649 6.72066 42.649C6.79216 44.019 6.86519 45.3842 6.9367 46.7542C6.97437 46.7619 7.01127 46.7673 7.05048 46.7742C7.12505 46.6627 7.20269 46.5482 7.36645 46.3083C7.50329 47.1978 7.6186 47.9573 7.73316 48.7176C7.76852 48.7176 7.80235 48.7153 7.84002 48.7145C7.92151 46.808 8.00608 44.8975 8.09373 42.8881C9.0447 44.2104 9.0447 44.2104 9.25611 45.6756C9.32453 45.4319 9.39295 45.1898 9.46138 44.9453C10.1448 51.1855 9.9926 57.4618 10.6399 63.7004C11.1558 56.2178 10.9582 48.7216 11.225 41.2329C11.3264 46.5176 11.4302 51.8068 11.5302 57.0928C11.5678 57.0928 11.6063 57.0928 11.6424 57.0951C11.7231 52.3041 11.8031 47.5169 11.8838 42.7267C11.9069 42.7267 11.9276 42.7267 11.9492 42.7274C12.0868 47.2254 12.2259 51.7221 12.3612 56.2209C12.452 56.2217 12.5396 56.224 12.6303 56.2255C13.3553 51.0355 13.6428 45.8101 13.855 40.5664C13.9772 42.4676 14.1018 44.371 14.2232 46.273H14.3447C14.3954 45.7348 14.4485 45.1998 14.4992 44.6647C14.5292 44.6616 14.5584 44.657 14.5884 44.6539C14.6568 45.3935 14.7545 46.1331 14.7844 46.8704C14.939 50.6213 15.0673 54.3691 15.2219 58.1175C15.2472 58.741 15.3541 59.3637 15.4248 59.9849H15.6508C15.72 59.3875 15.833 58.7902 15.8492 58.1928C15.9361 55.2423 16.0014 52.2926 16.0683 49.3426C16.0806 48.7753 16.0691 48.2071 16.1398 47.6352C16.2543 51.9718 16.3712 56.3108 16.4888 60.6482C16.5326 60.6513 16.5757 60.6513 16.6203 60.6513C16.8409 54.704 17.0592 48.7553 17.2791 42.8104C17.3014 42.8104 17.3206 42.8096 17.3429 42.8096C17.4275 46.1368 17.5128 49.4688 17.5974 52.7968C17.6105 52.7968 17.6274 52.7968 17.6412 52.7991C17.7634 50.3236 17.8857 47.8504 18.0079 45.3765C18.061 45.3757 18.1117 45.3734 18.1648 45.3711C18.2201 46.1268 18.277 46.8764 18.3323 47.6328C18.35 47.6336 18.3685 47.6336 18.3885 47.6336C18.5138 46.605 18.6383 45.5772 18.7644 44.5477C18.7813 44.55 18.7975 44.5507 18.8105 44.553C19.0189 48.3209 19.2272 52.0894 19.4356 55.8586C19.5047 55.8578 19.5747 55.8578 19.6431 55.8555C19.6785 55.3797 19.7139 54.8999 19.7492 54.4195C19.7877 53.8805 20.0306 53.5661 20.6202 53.5761C21.0769 53.5792 21.1692 53.2271 21.1876 52.8796C21.236 51.9371 21.2291 50.9938 21.2952 50.0558C21.3721 48.9603 21.5005 47.8655 21.6135 46.7723C21.6304 46.6247 21.6996 46.4832 21.8372 46.3502C21.9256 46.9914 22.0125 47.6356 22.0994 48.2791C22.4784 45.8235 22.2547 43.3304 22.7505 40.888C23.271 42.5255 22.8451 44.2882 23.4624 45.9158C23.936 45.3116 23.9098 44.5974 24.0682 43.9086C24.1005 44.3568 24.1512 44.8058 24.1605 45.2563C24.2412 48.6504 24.3104 52.0485 24.3926 55.4418C24.4134 56.2928 24.4388 57.1493 24.5126 57.9987C24.5372 58.2663 24.807 58.5215 24.8131 58.786C24.9016 62.6644 24.9654 66.5384 25.0315 70.4121C25.0422 71.0702 25.0768 71.7306 25.0346 72.3863C24.9992 72.9375 25.2152 73.0805 25.645 72.9606C25.3167 63.0457 25.512 53.15 25.8687 43.2526C26.1255 53.1329 26.2423 63.0179 25.9448 72.9173C26.5344 73.0757 26.5752 73.0464 26.5821 72.383C26.6305 66.9616 26.6767 61.5372 26.7266 56.1134C26.729 55.8304 26.7266 55.546 26.8304 55.2616C26.9219 57.5294 27.0142 59.7958 27.1056 62.0636C27.1333 62.0636 27.1595 62.0644 27.1871 62.0667C27.2778 58.9624 27.3678 55.8519 27.4547 52.7437C27.4962 52.7437 27.5385 52.7437 27.5784 52.7414C27.6922 54.1183 27.8045 55.4936 27.9183 56.8698H27.9813C28.0505 55.2285 28.1212 53.5834 28.1896 51.9436C28.2227 51.9428 28.2581 51.9428 28.2911 51.9405C28.4164 53.1359 28.5433 54.3276 28.6678 55.5222H28.7462C28.9722 51.7707 29.1983 48.0144 29.4281 44.1804C29.6518 48.0028 29.8725 51.739 30.0924 55.4753C30.1246 55.4753 30.1562 55.4723 30.1869 55.4723C30.406 51.1732 30.6244 46.8736 30.8427 42.5761H30.9926C31.0049 42.7668 31.0187 42.962 31.0287 43.1527C31.0871 44.2528 31.1179 45.3559 31.214 46.4523C31.2494 46.8414 31.4685 47.2119 31.5645 47.5978C31.6537 47.9768 31.7329 48.3635 31.7429 48.7518C31.8244 52.2335 31.8882 55.717 31.9666 59.2032C31.9797 59.8736 32.0412 60.5455 32.1642 61.2104C32.6885 56.5125 32.6262 51.7822 32.8738 47.0681C32.9829 51.3772 32.8361 55.693 33.2835 59.9896C33.3496 59.9927 33.4135 59.9966 33.4811 59.9996C33.5441 59.5022 33.6456 59.0064 33.6618 58.5074C33.7533 55.3078 33.8278 52.1089 33.8978 48.9092C33.9162 48.0381 33.8985 47.1679 34.0231 46.2969C34.1376 49.3083 34.2537 52.3165 34.369 55.3278C34.4152 55.3278 34.4651 55.3278 34.512 55.3248C34.5605 54.4937 34.6089 53.6642 34.6566 52.8316C34.675 52.8285 34.695 52.8247 34.7119 52.8247C34.8103 53.798 34.9079 54.7697 35.004 55.7406C35.0602 55.7406 35.1163 55.7375 35.1739 55.7337C35.2608 52.554 35.3485 49.3736 35.4361 46.1938C35.4722 46.1938 35.5076 46.1931 35.543 46.1931C35.6444 48.9944 35.7436 51.7975 35.8428 54.6013H35.9097C36.0081 50.3937 36.1034 46.1801 36.2018 41.9702C36.2502 41.9656 36.3002 41.9625 36.3471 41.9594C36.4509 42.9481 36.5547 43.9391 36.6554 44.9277C36.6907 44.93 36.7238 44.933 36.7592 44.9361C36.8091 44.6178 36.8576 44.3026 36.906 43.9859C36.9498 43.9736 36.9944 43.9613 37.0375 43.9505C37.1236 44.3403 37.2681 44.7239 37.2865 45.1191C37.4103 48.0328 37.5272 50.945 37.6094 53.8577C37.6509 55.3491 37.6163 56.8376 37.6163 58.3311C37.7009 58.3319 37.7893 58.3342 37.8731 58.3365C38.0845 54.4281 38.2952 50.518 38.5081 46.6088C38.5166 46.6065 38.5258 46.6065 38.5358 46.6057C38.6657 48.0395 38.7949 49.4771 38.9248 50.9132H38.994C39.0724 49.1842 39.1516 47.4522 39.23 45.7248H39.2954C39.4207 47.4046 39.5475 49.0851 39.6721 50.7627C39.6944 50.7627 39.7128 50.765 39.7336 50.765C39.8197 47.9989 39.9058 45.2343 39.9896 42.4705C40.0142 42.4682 40.038 42.4682 40.0626 42.4659C40.1848 44.6401 40.3094 46.8102 40.4293 48.986H40.6023C40.6023 47.3508 40.5892 45.718 40.6092 44.0835C40.6138 43.5346 40.663 42.9803 40.7622 42.4422C40.8029 42.2215 41.0274 42.0347 41.1696 41.8302C41.3395 42.0278 41.6217 42.2069 41.6555 42.4252C41.7678 43.1225 41.787 43.8382 41.8416 44.5448C41.8562 44.7209 41.8677 44.8939 41.933 45.073C42.1483 43.424 42.362 41.7741 42.5742 40.1266C42.6426 40.1297 42.7118 40.1336 42.7818 40.1351C42.9894 42.9949 43.1962 45.8533 43.4045 48.7131C43.4499 48.7154 43.496 48.7185 43.5421 48.7216C43.6636 47.0587 43.4791 45.3566 43.9673 43.7392C44.0403 43.7315 44.1125 43.7269 44.1879 43.7215C44.2648 44.049 44.3686 44.3719 44.4139 44.7048C44.4639 45.05 44.4554 45.4059 44.4793 45.8111C44.6422 45.7596 44.7491 45.7219 44.9374 45.6604C44.9859 46.1993 45.0689 46.7198 45.0797 47.2418C45.1604 51.1909 45.215 55.1347 45.3034 59.0809C45.3541 61.3027 45.4464 63.522 45.5271 65.7446C45.5355 66.006 45.5886 66.2689 45.6186 66.5303C45.6801 66.5303 45.74 66.5257 45.7992 66.5257C45.9038 59.2361 46.0076 51.9435 46.1113 44.6525C46.1298 44.6518 46.1498 44.6518 46.1698 44.6518C46.2766 49.781 46.3881 54.9135 46.498 60.045H46.5588C46.6549 53.4512 46.7494 46.855 46.8455 40.26C46.8632 40.2593 46.8817 40.2593 46.9017 40.2593C47.0331 44.7051 47.1615 49.1526 47.293 53.599C47.3391 53.6013 47.3821 53.6036 47.4283 53.6044C47.4744 53.2462 47.5228 52.8879 47.5682 52.532H47.6551C47.7612 54.457 47.8665 56.3797 47.9726 58.3063H48.0994C48.3178 53.034 48.5392 47.7649 48.7598 42.4911C48.7721 42.4911 48.7852 42.4888 48.7982 42.488C48.922 44.8727 49.0466 47.2582 49.1696 49.6461C49.2172 49.6461 49.2633 49.643 49.3118 49.643C49.3602 49.0864 49.411 48.5267 49.4609 47.9663C49.494 47.9617 49.5293 47.9555 49.5624 47.9517C49.6769 48.406 49.7938 48.8612 49.9099 49.314C49.9452 49.3147 49.9806 49.3147 50.0175 49.317C50.0859 48.3568 50.152 47.3959 50.2189 46.4395C50.2689 46.4288 50.3212 46.4188 50.3735 46.4119C50.5011 46.7532 50.6302 47.0984 50.8032 47.5527C50.8609 46.9761 50.9108 46.5303 50.9539 46.0859C50.9792 46.0828 51.0038 46.0774 51.0284 46.0774C51.1522 46.4157 51.2798 46.7555 51.4021 47.0961C51.4497 47.0915 51.5043 47.0884 51.5543 47.0853C51.6196 46.1297 51.6819 45.1764 51.7457 44.2208C51.7841 44.2185 51.8272 44.2154 51.8656 44.2131C51.9894 44.7343 52.114 45.2533 52.26 45.8852C52.3446 45.1333 52.4145 44.4991 52.4845 43.8663C52.5706 43.8717 52.6567 43.8771 52.739 43.8833C53.201 48.964 53.1856 54.0725 53.4324 59.1697C53.5154 52.5811 53.5985 45.9936 53.6845 39.4083C53.7153 39.409 53.7461 39.409 53.7737 39.409C53.8729 45.5777 53.969 51.7465 54.0636 57.9134C54.1051 57.9142 54.1474 57.9142 54.1904 57.9165C54.2611 54.7869 54.3373 51.6578 54.4118 48.5266C54.7632 50.8682 54.6655 53.2654 55.4827 55.5363C56.0132 53.6682 55.5696 51.7009 56.1493 49.8405C56.7058 51.0521 56.5283 52.3691 56.805 53.6275C56.9219 48.1722 57.0441 42.7163 57.1633 37.2602H57.2063C57.2824 41.7407 57.3585 46.2226 57.4331 50.7031C57.4662 50.7054 57.5015 50.7054 57.5353 50.7062C57.7944 48.4167 58.0543 46.1304 58.3103 43.8386C58.3333 43.8409 58.3579 43.8417 58.3795 43.844C58.4602 49.1962 58.5417 54.547 58.6216 59.8999H58.687C58.7946 55.9376 58.9061 51.9776 59.0176 48.0177C59.0529 48.0177 59.0883 48.0208 59.1252 48.0208C59.2036 50.3563 59.2835 52.6949 59.362 55.0304C59.3881 55.0304 59.4119 55.0274 59.4365 55.0274C59.5526 52.9762 59.6725 50.9198 59.7855 48.8679C59.9508 50.4254 59.8286 52.0014 60.3391 53.522C60.951 51.4663 60.7435 49.339 61.0048 47.2395C61.0817 47.9529 61.1632 48.661 61.2416 49.3745C61.2793 49.3775 61.3131 49.3814 61.3515 49.3829C61.4738 48.3912 61.5999 47.3948 61.7229 46.4017C61.8528 48.4959 61.8935 50.5831 62.3425 52.6273C62.4109 52.6273 62.4778 52.6273 62.5485 52.6242C62.6431 49.7766 62.7315 46.9314 62.8237 44.0838H62.8576C62.9829 48.153 63.1113 52.2206 63.2366 56.289H63.2719C63.3688 53.1369 63.4618 49.988 63.5572 46.8353C63.5948 46.8376 63.6356 46.8376 63.6732 46.8384C63.7878 47.0829 63.9016 47.3212 64.0169 47.5634C64.0853 47.5634 64.1514 47.5657 64.2206 47.5657C64.3113 47.096 64.4543 46.6347 64.4851 46.1627C64.5504 45.1709 64.5558 44.1723 64.5973 43.1783C64.6119 42.8785 64.6281 42.5679 64.7149 42.2842C64.768 42.1097 64.9594 41.979 65.0855 41.8291C65.2331 41.9813 65.456 42.1112 65.5091 42.2934C65.6129 42.6463 65.6505 43.0284 65.6636 43.3989C65.7297 45.2463 65.7774 47.093 65.875 48.9457C65.9942 46.7139 66.1164 44.4768 66.2363 42.2427C66.8644 47.3443 66.8583 52.4766 67.0597 57.6052C67.1758 51.7126 67.2911 45.8191 67.4056 39.9241H67.4187C67.531 46.3418 67.6417 52.7541 67.7493 59.1697C67.8108 59.1727 67.8692 59.1773 67.9315 59.1843C68.036 58.6223 68.1375 58.0588 68.2398 57.4983C68.3143 57.4906 68.3943 57.4806 68.4719 57.473C68.6672 58.3148 68.8663 59.1581 69.0624 60.0015C69.6136 53.8452 69.3653 47.6657 69.9703 41.5247C70.3847 46.1005 70.2394 50.6924 70.4246 55.2805C70.7391 53.1426 71.0481 51.0077 71.3625 48.8697C71.4164 48.8728 71.474 48.8744 71.5271 48.8767C71.6777 51.0024 71.8277 53.1287 71.9745 55.2522C71.9929 55.2491 72.0099 55.2491 72.026 55.2453C72.1106 52.5646 72.1921 49.8847 72.2781 47.2008C72.3158 47.1977 72.3496 47.1954 72.3881 47.1931C72.5026 48.4309 72.6203 49.6686 72.7317 50.8679C72.9585 48.0412 73.1899 45.179 73.4198 42.3145C73.4698 42.3145 73.522 42.3145 73.5743 42.3137C73.6028 42.805 73.6281 43.3016 73.6627 43.7951C73.6965 44.311 73.7181 44.8268 73.7788 45.3358C73.8342 45.8347 73.9333 46.3267 74.011 46.8256C74.0994 46.8233 74.1863 46.8226 74.2708 46.8203C74.3285 46.0807 74.3854 45.3457 74.4361 44.607C74.4845 43.8489 74.5222 43.094 74.6514 42.3376C75.0588 44.6101 75.1296 46.9004 75.1642 49.1904C75.1964 51.4852 75.1711 53.7762 75.1711 56.0686C75.2426 56.0709 75.3156 56.0709 75.3863 56.0717C75.504 53.1442 75.6223 50.2151 75.7415 47.2915C75.7646 47.2915 75.7876 47.2885 75.813 47.2885C75.9045 51.8843 75.9967 56.4799 76.0898 61.0758C76.1274 61.0758 76.1636 61.0804 76.202 61.0835C76.2251 60.7837 76.2381 60.4815 76.2704 60.1855C76.428 58.8417 76.2558 57.4509 76.8831 56.1772C76.9846 53.2105 77.0807 50.2423 77.1884 47.2762C77.2906 44.4701 77.4067 41.6619 77.5205 38.8582C77.5305 38.6706 77.572 38.4853 77.7257 38.3062C77.8203 43.7483 77.9141 49.1906 78.0056 54.6303H78.1155C78.2124 52.384 78.3108 50.1408 78.4076 47.8942C78.4507 47.8911 78.4968 47.8911 78.5391 47.8911C78.6006 48.8944 78.6583 49.8946 78.719 50.9001C78.7444 50.9024 78.7651 50.9055 78.7874 50.907C78.915 49.4633 79.045 48.0203 79.1757 46.5728H79.2771C79.3271 47.117 79.3794 47.6652 79.4317 48.2118C79.4732 48.2118 79.5201 48.2126 79.5631 48.2149C79.6769 46.286 79.7876 44.3618 79.8983 42.4352C79.9314 42.4352 79.9637 42.4329 79.9975 42.4329C80.0913 47.6613 80.1835 52.8867 80.2773 58.1161H80.3519C80.4549 54.077 80.5541 50.047 80.6532 46.0132C80.6886 46.0132 80.7217 46.0132 80.7578 46.0109C80.8577 52.4257 80.9569 58.8396 81.0568 65.252H81.0945C81.2083 57.7148 81.3236 50.1716 81.4359 42.6349H81.525C81.5727 45.0119 81.6119 47.3898 81.668 49.7715C81.7265 52.161 81.7726 54.5549 82.0778 56.9312H82.2907C82.3845 54.7816 82.4737 52.6299 82.5652 50.4796C82.5729 50.4796 82.5775 50.4796 82.5852 50.4804C82.7105 52.5215 82.8389 54.5626 82.9696 56.6052C83.048 56.6052 83.1302 56.6075 83.2117 56.6075C83.304 55.7465 83.4385 54.8893 83.4816 54.0276C83.6107 51.5083 83.6922 48.9828 83.8175 46.4635C83.8529 45.6724 83.972 44.8875 84.0512 44.0995C84.1227 44.0887 84.1911 44.0787 84.2603 44.0695C84.4287 44.6092 84.6616 45.1389 84.7539 45.6916C84.9084 46.5988 84.9722 47.5213 85.0745 48.4384C85.1052 48.7029 85.0952 48.9827 85.1821 49.2257C85.2567 49.4348 85.4358 49.7438 85.5865 49.7561C85.7694 49.773 86.0439 49.5601 86.1554 49.374C86.8219 48.2524 86.921 46.9893 87.001 45.727C87.0348 45.2035 87.0064 44.6799 87.0064 44.1564C87.0625 44.1564 87.1209 44.1541 87.1817 44.1518C87.2855 44.5323 87.3854 44.9113 87.4892 45.2888C87.5192 45.2857 87.5507 45.2819 87.5814 45.2788C87.7306 43.1309 87.879 40.986 88.0266 38.8379C88.0827 38.8379 88.138 38.8379 88.1926 38.8348C88.2249 39.2315 88.2795 39.6274 88.2864 40.0241C88.3648 44.0587 88.434 48.0924 88.5047 52.1301C88.5762 56.253 88.6493 60.3791 88.7231 64.5028C88.7308 64.9064 88.7846 65.3085 88.8153 65.7105C88.8768 65.7082 88.9376 65.7082 89.0029 65.7082C89.1105 63.3896 89.209 61.0687 89.3335 58.747C89.4534 56.4414 89.6079 54.1366 89.7479 51.8333C89.7994 51.8333 89.8524 51.8303 89.9055 51.8303C89.9639 52.8335 90.0246 53.8375 90.0861 54.8446H90.223C90.3421 50.9053 90.4621 46.967 90.5689 43.343C90.7696 48.9173 90.9833 54.8093 91.1947 60.7035H91.4061C91.576 56.469 91.413 52.2054 92.4055 48.0502C92.467 48.0471 92.5293 48.0425 92.5862 48.0425C92.6608 48.287 92.7338 48.5307 92.8045 48.7767C92.8407 48.779 92.8729 48.7821 92.906 48.7844C92.9998 47.4275 93.0921 46.0667 93.1851 44.7099C93.2174 44.7045 93.2504 44.6968 93.2819 44.6914C93.3565 44.9459 93.3896 45.2257 93.5233 45.4518C93.6425 45.6593 93.8647 45.81 94.0423 45.9876C94.1853 45.7816 94.4305 45.5878 94.4482 45.3726C94.5581 44.2778 94.6089 43.177 94.6688 42.0784C94.6873 41.7601 94.6719 41.4396 94.7703 41.1159C94.8487 41.7025 94.8902 42.2983 95.024 42.8741C95.097 43.1993 95.3392 43.4838 95.4661 43.7974C95.616 44.1703 95.7221 44.56 95.8835 45.0436C95.9904 44.0849 96.0872 43.1955 96.1856 42.3084C96.2371 42.3107 96.2879 42.313 96.3402 42.3138C96.4424 47.6514 96.5439 52.9874 96.6431 58.3273H96.6707C96.7853 52.3448 96.9044 46.366 97.0213 40.3856C97.042 40.3856 97.0643 40.3856 97.0874 40.3864C97.1789 46.3867 97.2696 52.3863 97.3588 58.385C97.4141 58.3881 97.4703 58.3881 97.5241 58.3919C97.6202 56.2839 97.7117 54.1728 97.807 52.0634C97.8247 52.0642 97.8408 52.0642 97.8585 52.0642C97.95 54.5504 98.0422 57.0351 98.1306 59.5198H98.2252C98.2782 56.793 98.329 54.07 98.3859 51.3431C98.4443 48.62 98.472 45.8986 98.7757 43.1917H98.9871C99.0555 44.9714 99.1185 46.7504 99.1831 48.5301L99.1862 33.572L99.1908 33.5756Z" fill="#6A7187"/>
</svg>
